HIERARCHY
ROOT Hips
{
	OFFSET -14.64140 90.27770 -84.91600
	CHANNELS 6 Xposition Yposition Zposition Zrotation Xrotation Yrotation
	JOINT Spine
	{
		OFFSET 0.00000 13.20850 -1.60436
		CHANNELS 3 Zrotation Xrotation Yrotation
		JOINT Spine1
		{
			OFFSET 0.00000 8.61716 0.00000
			CHANNELS 3 Zrotation Xrotation Yrotation
			JOINT Spine2
			{
				OFFSET 0.00000 8.61717 0.00000
				CHANNELS 3 Zrotation Xrotation Yrotation
				JOINT Spine3
				{
					OFFSET 0.00000 8.61717 0.00000
					CHANNELS 3 Zrotation Xrotation Yrotation
					JOINT Neck
					{
						OFFSET 0.00000 11.07920 1.10792
						CHANNELS 3 Zrotation Xrotation Yrotation
						JOINT Neck1
						{
							OFFSET 0.00000 7.08032 0.00000
							CHANNELS 3 Zrotation Xrotation Yrotation
							JOINT Head
							{
								OFFSET 0.00000 7.08031 0.00000
								CHANNELS 3 Zrotation Xrotation Yrotation
								End site
								{
									OFFSET 0.00000 0.00000 0.00000
								}
							}
						}
					}
					JOINT RightShoulder
					{
						OFFSET -0.01000 7.91373 5.19711
						CHANNELS 3 Zrotation Xrotation Yrotation
						JOINT RightArm
						{
							OFFSET -18.41580 0.00000 0.00000
							CHANNELS 3 Zrotation Xrotation Yrotation
							JOINT RightForeArm
							{
								OFFSET -29.11090 0.00000 0.00000
								CHANNELS 3 Zrotation Xrotation Yrotation
								JOINT RightHand
								{
									OFFSET -24.65040 0.00000 0.00000
									CHANNELS 3 Zrotation Xrotation Yrotation
									JOINT RightHandThumb1
									{
										OFFSET -5.35114 -0.85590 3.97906
										CHANNELS 3 Zrotation Xrotation Yrotation
										JOINT RightHandThumb2
										{
											OFFSET -4.52789 0.00000 0.00000
											CHANNELS 3 Zrotation Xrotation Yrotation
											JOINT RightHandThumb3
											{
												OFFSET -2.46976 0.00000 0.00000
												CHANNELS 3 Zrotation Xrotation Yrotation
												End site
												{
													OFFSET 0.00000 0.00000 0.00000
												}
											}
										}
									}
									JOINT RightHandIndex1
									{
										OFFSET -14.26970 0.00000 2.88139
										CHANNELS 3 Zrotation Xrotation Yrotation
										JOINT RightHandIndex2
										{
											OFFSET -5.48836 0.00000 0.00000
											CHANNELS 3 Zrotation Xrotation Yrotation
											JOINT RightHandIndex3
											{
												OFFSET -3.01859 0.00000 0.00000
												CHANNELS 3 Zrotation Xrotation Yrotation
												End site
												{
													OFFSET 0.00000 0.00000 0.00000
												}
											}
										}
									}
									JOINT RightHandMiddle1
									{
										OFFSET -14.26970 0.00000 -0.09147
										CHANNELS 3 Zrotation Xrotation Yrotation
										JOINT RightHandMiddle2
										{
											OFFSET -6.17441 0.00000 0.00000
											CHANNELS 3 Zrotation Xrotation Yrotation
											JOINT RightHandMiddle3
											{
												OFFSET -3.56743 0.00000 0.00000
												CHANNELS 3 Zrotation Xrotation Yrotation
												End site
												{
													OFFSET 0.00000 0.00000 0.00000
												}
											}
										}
									}
									JOINT RightHandRing1
									{
										OFFSET -12.69180 0.00000 -3.06433
										CHANNELS 3 Zrotation Xrotation Yrotation
										JOINT RightHandRing2
										{
											OFFSET -5.62556 0.00000 0.00000
											CHANNELS 3 Zrotation Xrotation Yrotation
											JOINT RightHandRing3
											{
												OFFSET -3.56744 0.00000 0.00000
												CHANNELS 3 Zrotation Xrotation Yrotation
												End site
												{
													OFFSET 0.00000 0.00000 0.00000
												}
											}
										}
									}
									JOINT RightHandPinky1
									{
										OFFSET -11.11390 0.00000 -6.03719
										CHANNELS 3 Zrotation Xrotation Yrotation
										JOINT RightHandPinky2
										{
											OFFSET -4.52789 0.00000 0.00000
											CHANNELS 3 Zrotation Xrotation Yrotation
											JOINT RightHandPinky3
											{
												OFFSET -2.46976 0.00000 0.00000
												CHANNELS 3 Zrotation Xrotation Yrotation
												End site
												{
													OFFSET 0.00000 0.00000 0.00000
												}
											}
										}
									}
								}
							}
						}
					}
					JOINT LeftShoulder
					{
						OFFSET 0.01000 7.91373 5.19711
						CHANNELS 3 Zrotation Xrotation Yrotation
						JOINT LeftArm
						{
							OFFSET 18.41580 0.00000 0.00000
							CHANNELS 3 Zrotation Xrotation Yrotation
							JOINT LeftForeArm
							{
								OFFSET 29.11090 0.00000 0.00000
								CHANNELS 3 Zrotation Xrotation Yrotation
								JOINT LeftHand
								{
									OFFSET 24.65040 0.00000 0.00000
									CHANNELS 3 Zrotation Xrotation Yrotation
									JOINT LeftHandThumb1
									{
										OFFSET 5.35114 -0.85590 3.97906
										CHANNELS 3 Zrotation Xrotation Yrotation
										JOINT LeftHandThumb2
										{
											OFFSET 4.52789 0.00000 0.00000
											CHANNELS 3 Zrotation Xrotation Yrotation
											JOINT LeftHandThumb3
											{
												OFFSET 2.46977 0.00000 0.00000
												CHANNELS 3 Zrotation Xrotation Yrotation
												End site
												{
													OFFSET 0.00000 0.00000 0.00000
												}
											}
										}
									}
									JOINT LeftHandIndex1
									{
										OFFSET 14.26970 0.00000 2.88139
										CHANNELS 3 Zrotation Xrotation Yrotation
										JOINT LeftHandIndex2
										{
											OFFSET 5.48836 0.00000 0.00000
											CHANNELS 3 Zrotation Xrotation Yrotation
											JOINT LeftHandIndex3
											{
												OFFSET 3.01859 0.00000 0.00000
												CHANNELS 3 Zrotation Xrotation Yrotation
												End site
												{
													OFFSET 0.00000 0.00000 0.00000
												}
											}
										}
									}
									JOINT LeftHandMiddle1
									{
										OFFSET 14.26970 0.00000 -0.09147
										CHANNELS 3 Zrotation Xrotation Yrotation
										JOINT LeftHandMiddle2
										{
											OFFSET 6.17440 0.00000 0.00000
											CHANNELS 3 Zrotation Xrotation Yrotation
											JOINT LeftHandMiddle3
											{
												OFFSET 3.56744 0.00000 0.00000
												CHANNELS 3 Zrotation Xrotation Yrotation
												End site
												{
													OFFSET 0.00000 0.00000 0.00000
												}
											}
										}
									}
									JOINT LeftHandRing1
									{
										OFFSET 12.69180 0.00000 -3.06433
										CHANNELS 3 Zrotation Xrotation Yrotation
										JOINT LeftHandRing2
										{
											OFFSET 5.62556 0.00000 0.00000
											CHANNELS 3 Zrotation Xrotation Yrotation
											JOINT LeftHandRing3
											{
												OFFSET 3.56744 0.00000 0.00000
												CHANNELS 3 Zrotation Xrotation Yrotation
												End site
												{
													OFFSET 0.00000 0.00000 0.00000
												}
											}
										}
									}
									JOINT LeftHandPinky1
									{
										OFFSET 11.11390 0.00000 -6.03719
										CHANNELS 3 Zrotation Xrotation Yrotation
										JOINT LeftHandPinky2
										{
											OFFSET 4.52789 0.00000 0.00000
											CHANNELS 3 Zrotation Xrotation Yrotation
											JOINT LeftHandPinky3
											{
												OFFSET 2.46976 0.00000 0.00000
												CHANNELS 3 Zrotation Xrotation Yrotation
												End site
												{
													OFFSET 0.00000 0.00000 0.00000
												}
											}
										}
									}
								}
							}
						}
					}
					JOINT pCube4
					{
						OFFSET 0.00000 10.91090 1.10792
						CHANNELS 3 Zrotation Xrotation Yrotation
						End site
						{
							OFFSET 0.00000 0.00000 0.00000
						}
					}
				}
			}
		}
	}
	JOINT RightUpLeg
	{
		OFFSET -9.98441 0.00000 0.00000
		CHANNELS 3 Zrotation Xrotation Yrotation
		JOINT RightLeg
		{
			OFFSET 0.00000 -42.11790 0.00000
			CHANNELS 3 Zrotation Xrotation Yrotation
			JOINT RightFoot
			{
				OFFSET 0.00000 -45.00020 -0.00001
				CHANNELS 3 Zrotation Xrotation Yrotation
				JOINT RightForeFoot
				{
					OFFSET 0.00000 -3.74820 0.00000
					CHANNELS 3 Zrotation Xrotation Yrotation
					JOINT RightToeBase
					{
						OFFSET 0.00000 0.06325 14.43120
						CHANNELS 3 Zrotation Xrotation Yrotation
						End site
						{
							OFFSET 0.00000 0.00000 0.00000
						}
					}
				}
			}
		}
	}
	JOINT LeftUpLeg
	{
		OFFSET 9.98441 0.00000 0.00000
		CHANNELS 3 Zrotation Xrotation Yrotation
		JOINT LeftLeg
		{
			OFFSET 0.00000 -42.11800 0.00000
			CHANNELS 3 Zrotation Xrotation Yrotation
			JOINT LeftFoot
			{
				OFFSET 0.00000 -45.00070 0.00000
				CHANNELS 3 Zrotation Xrotation Yrotation
				JOINT LeftForeFoot
				{
					OFFSET 0.00000 -3.74824 0.00000
					CHANNELS 3 Zrotation Xrotation Yrotation
					JOINT LeftToeBase
					{
						OFFSET 0.00000 0.06325 14.43110
						CHANNELS 3 Zrotation Xrotation Yrotation
						End site
						{
							OFFSET 0.00000 0.00000 0.00000
						}
					}
				}
			}
		}
	}
}
MOTION
Frames: 4
Frame Time: 0.050000
0.0036637542686238666 0.0049577980184853 0.04240855560562867 -0.018661619733898935 -0.027253245144320672 -0.035364528544076256 -1.2772104534102984 1.6428276283338352 -0.9940417116702086 -0.9151491665845312 3.9649979737916263 0.32857063877781023 -1.1787965798092508 -1.9539499811838035 -0.36982445993107477 0.603013537536399 0.5698942263985035 -0.7136337619422708 0.6504493618937575 14.506193365647334 -2.4741641234818634 0.1862193558045541 0.3069001995563442 -7.6496195333298935 1.1289368314863184 -15.025224527626925 -0.6023195951191759 -6.070349557126955 2.007525561499896 -14.83327428088123 72.78243144670952 28.95083081144888 7.948529287246072 2.706229371960649 2.4076791226194203 66.96725968203594 21.609285885785813 -0.3711554846199511 -4.354852667277447 4.553751686517303 -0.12439582184017631 -1.5749642530633616 -0.04898127499068099 -0.02237434709023475 -56.265532457389774 -0.03499028219257595 -0.039339319149135354 -56.20474497190343 -38.72612127186289 -0.0019255984636270403 -0.03433877794574734 0.03928099459478545 -0.0016442795727209297 -0.004567232850956604 0.003975984164163462 -0.007332732981878248 0.04199294568258075 -36.71583281958968 0.027681321554277178 0.036881533374546284 -0.002427964953918871 -0.03134650661402407 -0.04474513442910703 0.012860059063739547 0.016654894253806878 -0.007289956142920806 -19.769143522222166 -0.0019177566716370503 -0.039560758845448546 -0.010118039349582013 0.0324749541780401 -0.03213992691614646 0.009507045669720755 0.0008036277716685869 -0.0007861146659355174 24.02271247926845 -0.02602714044329262 -0.023580235413574943 28.83784762362931 -0.002287077317492259 -0.006590539197936593 28.845474423089662 -0.02600225012289043 -0.03574016988369203 5.87591305969242 1.462982571392968 13.198561006520226 -68.76615671510287 29.66719488740582 -7.582334913241631 3.6490154235580845 -10.038036700184279 -56.47044879235045 -10.907989858640244 -0.3606191555334308 2.1536097282924564 -0.4441361007967186 0.09421797897364956 -8.112569850458803 0.026780183339815047 0.02020372324283431 44.55665592128249 0.00952753856561459 -0.017352486095653173 44.5794585581232 12.481457796474693 0.025693507500485307 -0.030050990693065136 -0.04987560851872526 0.027523480776542087 -0.022942924824915816 -0.005835310589885438 0.029473427717528852 -0.0340013573300174 11.12617164286472 -0.0422251914190344 0.004560833403313714 -0.010308781387605489 -0.013064026424635895 0.04044792238225262 -0.025860345711073037 -0.004202216235878799 0.000237907103233366 4.750200542949708 0.04424693112474956 0.037655847821765565 -0.04844047921661967 0.004846591318818742 0.014199060904301177 0.018584157674473814 -0.029460723784742505 -0.037647681575227104 -5.603963831835675 0.04942582099279689 -0.027290425650035473 -6.7492124264258075 -0.0018547746434371256 -0.00957165183615267 -6.741625126969658 0.03823628506100798 -0.0015576071927189132 0.032859253876455045 0.04284013275105589 -0.0035438729546918893 8.08130459856107 3.491472845812796 -19.19322318426374 -0.037809844816701084 10.395652807135608 0.05196180107435272 -5.584178935341897 -15.692323294915576 3.2006805322839305 -0.015459863112341979 0.029177435333186234 -0.03200207978995741 -0.0137546890675218 4.705835084591729 -0.010717167193027682 12.465052552491505 -8.26090894097213 6.875867696954729 -0.046312321996401846 46.40107163528706 -0.02006220416358161 -4.335657353508555 -14.722705121624026 -3.84002841785519 -0.014275707093932404 0.007995391297677679 0.03229460840463664 0.04299948960995627 -10.740589575279174 -0.019974354308898244 
0.00272869312808417 -0.0301090439039543 0.02403363876827469 0.03449046515781974 0.014127088634739455 -0.03356422077526803 -1.0432295180633038 1.5219274140922439 -1.0664275752880914 -0.9283604166280026 3.958634674417731 0.399272602784299 -1.2197976000869724 -1.8806847120565302 -0.345446866759751 0.659161102523433 0.6378962440746343 -0.6686694957308846 0.7742356728730866 14.564215893984889 -2.790717060805393 0.2001234790504929 0.3210758666762271 -8.37590601640841 1.2348187348724748 -15.059748792445626 -0.6398661931810506 -6.42314750862881 2.081409155309807 -15.045394171113681 73.20702266823749 28.96486156559973 7.874655938514403 2.5288634996088484 2.2696135506873074 66.20664975352119 21.567933459803463 -0.40497067658710945 -4.3513368904775716 4.503658698870291 -0.14171633797999728 -1.6290919141294375 0.002819523162855853 0.02097308075564812 -56.18740154232244 0.008619126082682305 0.03861344012448198 -56.18966991624217 -38.79798923738855 0.007211632911752218 0.015445726674156631 -0.009520755324927181 -0.04785603369566073 0.028244049161628836 -0.03080472391742248 0.0007458034613466401 0.028864356708021805 -36.718617486065156 0.01165061668441962 0.028302410512435334 0.040157480160749805 -0.012779730966230286 0.01357781487779196 0.009136069187926426 0.01926305299029702 -0.021922736189880276 -19.765730163834284 0.0073470844364630535 -0.014553277719292759 0.015068163694476293 0.04022666078253445 -0.007156029039592 0.028750793109110096 -0.03553865493860926 0.02405740816343749 24.073701469088007 -0.01926337437216996 0.042296220647633144 28.85458748883963 -0.01983060683924573 -0.03008437468395943 28.899528207520436 0.04773308829578502 -0.0424809034490564 6.040667141584231 1.4737296050457305 13.253457096689596 -69.22162555948456 29.65695238195726 -7.082493698664024 3.5662248375495 -9.561030714441397 -54.82187901069178 -11.29500059168591 -0.30911192529884024 2.0993918347933405 -0.5066547905687498 0.09803227226961732 -8.096612999601975 -0.030840344303673963 -0.02940992915533053 44.57260092147379 0.01009014099391196 -0.01876840291390748 44.58256204653392 12.499678321785673 0.004340208832350171 -0.032652517148206724 -0.01303315513587219 0.04012167123047738 0.014325221195056217 0.04678187799167464 0.0297717510083042 0.008672638233443648 11.102398049057244 -0.028286004372647788 0.003032982319496582 -0.025439433720276513 0.032112471801862975 -0.01924696210748067 -0.03494356571288225 0.046493547107550305 0.04897113719847715 4.755985256592253 -0.02384541813410686 -0.004461630193273227 0.04671157360032286 0.019517112174283997 -0.03924819047136343 0.0011146670216303865 0.015853520887127957 0.031151623486899503 -5.639597401443572 -0.025715507843951532 0.04453625463297614 -6.7082645143433846 -0.02690967375415198 0.009929693390161537 -6.711913418357274 0.030399389980830378 0.024249384480953286 0.001194398917882181 -0.029003285930922645 0.008432689086768785 8.017069750607154 3.481938885012949 -19.235713466145317 -0.01747258684676084 10.384342718221566 -0.0008622862922864575 -5.572392060229928 -15.684897292588694 3.178800440565831 -0.020583712576837335 -0.01096095435401607 0.02233421180790863 -0.044071223855302606 4.7305902827674675 0.0165894272730258 12.503748937830322 -8.253229274326461 6.849893210685201 0.0013666889398069426 46.378157511715635 0.006942884997014622 -4.303190860179887 -14.733379645951524 -3.8352623372804406 0.017526111687072514 -0.013000917175919295 -0.015290635087613401 -0.005420019160080043 -10.7098960950824 0.024625230785027142 
0.020281055529462987 -0.03735664323979536 -0.017355125882298792 -0.006751633950505967 -0.029123609671413878 0.021275275786264706 -0.7351137795258502 1.4773009457192048 -1.079726292737037 -0.9614291838503317 3.9332173238562413 0.3709044628264316 -1.1737089727032806 -1.989357988261558 -0.22788288422116723 0.7279786367474755 0.5423125886076973 -0.6547506859891743 0.8806766077989138 14.568058152365408 -3.088756299286037 0.11445513259615356 0.3587883161380761 -9.092030218227345 1.2441811337679884 -15.097054044269766 -0.7588726574360214 -6.7769862615841925 2.1513951906359265 -15.147878948808827 73.30559054992565 29.188362137702658 8.14124190123063 2.725964010303025 2.3023794070520247 66.23793453392578 21.550314013642648 -0.43783020798983713 -4.2975603297879985 4.503186278121563 -0.15849807705476449 -1.5852728334192785 -0.04396458082053318 -0.03261961683284383 -56.222439034451526 -0.008453710420838569 -0.007183231797283638 -56.28145254029948 -38.78384352471884 0.03871604401928856 0.02299514340658089 -0.04212252702881718 0.04046428947652724 0.017808834898731515 0.01719030167869994 -0.000817545701379835 0.028844942878756358 -36.69439141126932 -0.0284967778056345 0.009514007425404963 -0.03369871127260551 -0.03175085001588281 -0.0006616714715864168 0.048668800632403995 -0.010833409782497474 -0.025742550319697608 -19.762265250589063 0.009266641552961438 0.008255324065005886 -0.010482740177115197 -0.018150255032163103 0.0327317046776032 0.049041444646858764 0.031288147430803125 -0.020196445898517452 24.089459529598777 0.03173752163169534 -0.013982725168809856 28.896872638076346 0.032025315617774976 0.018226718932423967 28.859329221408785 0.0032914899189023265 0.011195846449134897 6.0537137742191485 1.4895754310176497 13.295293923780642 -69.55917388014001 29.793473453213412 -6.416336416496151 3.20288058952102 -8.935907775942834 -53.280169920852366 -11.79423682620004 -0.15913780478143696 2.1065620925665938 -0.5057239294430537 0.024697559006099552 -8.150862567545403 0.032882346994429934 -0.024616256079830066 44.530348557049614 -0.02246101681317422 -0.025052499755104027 44.54651467376255 12.452145979840628 0.036040080083409254 0.007736886700358038 0.01282465615195865 -0.013666106622167365 -0.043874721564033214 -0.042075427251793876 -0.02152589982979674 -0.04035002020041636 11.131062392664127 -0.02192058277329001 -0.009362509620872917 0.017014509324988696 -0.016954966680725752 0.004876607730146042 0.018524393454793005 -0.002159548699929574 0.0034436030534005157 4.776470120174093 -0.031086490149942657 0.006172354495800441 -0.0007421512721948386 0.019102037999284716 0.006127058192058312 -0.00911523719734588 -0.0034809727341221976 -0.002659776256465464 -5.637193664293406 -0.01064670513363043 0.007691540970197537 -6.682185929436189 -0.01606979177045345 0.04992416361752235 -6.696299906118361 -0.006124020122023218 0.02312193937506439 0.020262432941582795 -0.0076430940744225675 -0.0007317129420780604 8.029746675520819 3.5054248127576777 -19.250246279921168 0.01843444873888828 10.425972107001169 0.04503505528930715 -5.648387829933617 -15.65057379340562 3.202342171791968 0.032727714046463116 -0.04386772894516377 0.04154291791355693 -0.04791745311316087 4.698105628137297 0.02588473967313958 12.468009743400543 -8.271119634298328 6.88456930153841 -0.01273082717431044 46.384409580505036 0.005544493362222182 -4.337156665604921 -14.76481150636631 -3.7964696389626766 0.017250892924905194 -0.02964493694611785 0.0067333121588197455 0.03942229742866575 -10.69556652728977 0.021966684636279373 
0.04725060177382761 0.041692133806895744 -0.004323696387853897 0.03283425509743698 -0.032738635201508805 0.018507969808785482 -0.5085150464911765 1.4706027710333371 -1.098547786902205 -0.8603125557385367 3.8974568140018984 0.405899429723802 -1.1482225452489205 -1.9310720409333821 -0.07864935137093412 0.7385293737367964 0.5435228077908351 -0.587833912302113 0.9469548783309673 14.538940114280624 -3.316311311696385 0.09494466920159805 0.31403948651826896 -9.729992922660518 1.368856791017888 -15.147897509713399 -0.7766886360591749 -6.921316476995252 2.2761378418773033 -15.288335280558398 73.3653782675042 29.29843966226084 8.289534778530161 1.7211608243476935 2.1635018456790296 66.11494117544088 21.630099524274282 -0.38637274296493457 -4.433776555815182 4.553280418314478 -0.08372345171939688 -1.608713439378735 -0.036079959693586745 0.029572200908086918 -56.21019525659231 -0.022659706779169016 -0.015390125128913263 -56.219348213012594 -38.762104417909754 0.006678900112958326 0.03435272017270098 -0.0021722842417849536 -0.006853682055399292 0.0037448974106603374 -0.018591233869396748 0.01891549987435867 0.03523110845769448 -36.73437813251073 0.035326379641199626 0.004643419185438131 0.013707473458781792 -0.027461291085503253 -0.042180207785349505 0.03754924798527128 -0.03424629672289048 0.01623158073636374 -19.750864835048038 0.046905503910864524 0.0457149736399207 -0.03755172977435253 -0.039419017073633995 -0.0016706716823779813 -0.011437798841378872 0.018343769908491174 0.0008282072058401374 24.064222720801887 0.026848774419849994 -0.006613079970849381 28.87092677299494 -0.01870561732575211 0.034902659326847 28.830190101966206 0.015320317604505272 -0.04226181894267911 5.984381145913044 1.4838316907798148 13.370581320599753 -69.97678644609088 29.826508713311092 -5.58585272867097 2.8161234830301343 -8.17702517084603 -51.86704461816857 -12.329934677446534 -0.16382369177115413 2.140977506434628 -0.5055657439829465 0.04532507167456903 -8.080284549099693 -0.01159502749961534 0.0232315983953937 44.586072964149075 0.028132600413239593 -0.032357770892458046 44.59502867716069 12.437408602525526 0.02297472314848374 0.03005905472731051 0.04316386166858119 -0.03150947606914151 -0.047217532224313546 -0.015348235303321672 -0.028974545045616973 -0.021478018966837608 11.128698458066753 -0.0067568397321245395 0.02712297267939962 -0.040378743273937374 -0.030426434687670492 -0.031737243755402725 -0.008797904939071784 -0.030914262942833816 -0.025586878960101936 4.746186787114087 0.004373922550926377 0.010588718326658076 -0.012305248863421424 -0.035033864690632875 0.027570275134152975 -0.0016347773255096678 -0.020683553316248566 0.04151747229525131 -5.620343695721009 -0.030994955057650403 -0.03315150456555581 -6.75649844759498 0.002206117356125879 -0.010439776307178432 -6.747035743726569 0.03553524143024388 0.027319354881138368 0.041711420578645964 -0.00526453056326352 -0.013535905909768007 8.035686807597012 3.502121238910809 -19.26005424904894 0.025757714526154416 10.432078500896637 -0.0032701219108096265 -5.607612995905761 -15.696408220760555 3.207532614285532 -0.008152851629486238 -0.028672226547080078 0.0034564752305622304 -0.0468091685759406 4.692126201873393 -0.04327725992395969 12.448009726666832 -8.223422579963097 6.868577064822674 0.04241898309788266 46.40213388567385 0.01862168890753898 -4.370169398669671 -14.723255113504873 -3.863357226474084 -0.005993961897477393 0.014647535550668242 0.02761400917781659 -0.024816900503319354 -10.718137035491825 0.02544714338968855 
